<svg width="1000" height="1000" viewBox="0 0 64 64" version="1.1" xmlns="http://www.w3.org/2000/svg" shape-rendering="crispEdges"><rect x="0" y="0" height="64" width="64" fill="#000000" /><!-- 
      baseOnly: true, 
      spacing: 2,
      excludeSq: true,
      persistFrames: 4,
      persistedFrames: 1,
    --><rect x="0" y="35" height="1" width="1" fill="#FFF1E8" /><rect x="0" y="38" height="1" width="1" fill="#FFF1E8" /><rect x="0" y="53" height="1" width="1" fill="#FFF1E8" /><rect x="0" y="56" height="1" width="1" fill="#FFF1E8" /><rect x="0" y="63" height="1" width="1" fill="#FFF1E8" /><rect x="1" y="45" height="1" width="1" fill="#FFF1E8" /><rect x="2" y="3" height="1" width="1" fill="#FFF1E8" /><rect x="2" y="10" height="1" width="1" fill="#FFF1E8" /><rect x="2" y="27" height="1" width="1" fill="#FFF1E8" /><rect x="2" y="31" height="1" width="1" fill="#FFF1E8" /><rect x="2" y="34" height="1" width="1" fill="#FFF1E8" /><rect x="2" y="45" height="1" width="1" fill="#FFF1E8" /><rect x="2" y="58" height="1" width="1" fill="#FFF1E8" /><rect x="3" y="34" height="1" width="1" fill="#FFF1E8" /><rect x="3" y="50" height="1" width="1" fill="#FFF1E8" /><rect x="4" y="13" height="1" width="1" fill="#FFF1E8" /><rect x="4" y="60" height="1" width="1" fill="#FFF1E8" /><rect x="5" y="34" height="1" width="1" fill="#FFF1E8" /><rect x="5" y="43" height="1" width="1" fill="#FFF1E8" /><rect x="5" y="44" height="1" width="1" fill="#FFF1E8" /><rect x="6" y="34" height="1" width="1" fill="#FFF1E8" /><rect x="6" y="43" height="1" width="1" fill="#FFF1E8" /><rect x="7" y="10" height="1" width="1" fill="#FFF1E8" /><rect x="7" y="18" height="1" width="1" fill="#FFF1E8" /><rect x="7" y="20" height="1" width="1" fill="#FFF1E8" /><rect x="7" y="46" height="1" width="1" fill="#FFF1E8" /><rect x="7" y="51" height="1" width="1" fill="#FFF1E8" /><rect x="8" y="26" height="1" width="1" fill="#FFF1E8" /><rect x="9" y="48" height="1" width="1" fill="#FFF1E8" /><rect x="9" y="60" height="1" width="1" fill="#FFF1E8" /><rect x="10" y="1" height="1" width="1" fill="#FFF1E8" /><rect x="10" y="35" height="1" width="1" fill="#FFF1E8" /><rect x="11" y="10" height="1" width="1" fill="#FFF1E8" /><rect x="11" y="18" height="1" width="1" fill="#FFF1E8" /><rect x="11" y="42" height="1" width="1" fill="#FFF1E8" /><rect x="11" y="63" height="1" width="1" fill="#FFF1E8" /><rect x="12" y="21" height="1" width="1" fill="#FFF1E8" /><rect x="12" y="39" height="1" width="1" fill="#FFF1E8" /><rect x="12" y="48" height="1" width="1" fill="#FFF1E8" /><rect x="12" y="56" height="1" width="1" fill="#FFF1E8" /><rect x="13" y="8" height="1" width="1" fill="#FFF1E8" /><rect x="13" y="13" height="1" width="1" fill="#FFF1E8" /><rect x="13" y="27" height="1" width="1" fill="#FFF1E8" /><rect x="13" y="56" height="1" width="1" fill="#FFF1E8" /><rect x="15" y="10" height="1" width="1" fill="#FFF1E8" /><rect x="16" y="10" height="1" width="1" fill="#FFF1E8" /><rect x="16" y="20" height="1" width="1" fill="#FFF1E8" /><rect x="16" y="31" height="1" width="1" fill="#FFF1E8" /><rect x="16" y="48" height="1" width="1" fill="#FFF1E8" /><rect x="17" y="39" height="1" width="1" fill="#FFF1E8" /><rect x="17" y="47" height="1" width="1" fill="#FFF1E8" /><rect x="18" y="3" height="1" width="1" fill="#FFF1E8" /><rect x="18" y="59" height="1" width="1" fill="#FFF1E8" /><rect x="19" y="20" height="1" width="1" fill="#FFF1E8" /><rect x="19" y="35" height="1" width="1" fill="#FFF1E8" /><rect x="20" y="27" height="1" width="1" fill="#FFF1E8" /><rect x="20" y="36" height="1" width="1" fill="#FFF1E8" /><rect x="20" y="39" height="1" width="1" fill="#FFF1E8" /><rect x="21" y="6" height="1" width="1" fill="#FFF1E8" /><rect x="21" y="53" height="1" width="1" fill="#FFF1E8" /><rect x="21" y="61" height="1" width="1" fill="#FFF1E8" /><rect x="22" y="9" height="1" width="1" fill="#FFF1E8" /><rect x="22" y="24" height="1" width="1" fill="#FFF1E8" /><rect x="22" y="26" height="1" width="1" fill="#FFF1E8" /><rect x="22" y="50" height="1" width="1" fill="#FFF1E8" /><rect x="23" y="13" height="1" width="1" fill="#FFF1E8" /><rect x="23" y="34" height="1" width="1" fill="#FFF1E8" /><rect x="24" y="11" height="1" width="1" fill="#FFF1E8" /><rect x="24" y="12" height="1" width="1" fill="#FFF1E8" /><rect x="24" y="14" height="1" width="1" fill="#FFF1E8" /><rect x="24" y="16" height="1" width="1" fill="#FFF1E8" /><rect x="24" y="46" height="1" width="1" fill="#FFF1E8" /><rect x="24" y="47" height="1" width="1" fill="#FFF1E8" /><rect x="24" y="49" height="1" width="1" fill="#FFF1E8" /><rect x="25" y="8" height="1" width="1" fill="#FFF1E8" /><rect x="25" y="13" height="1" width="1" fill="#FFF1E8" /><rect x="26" y="21" height="1" width="1" fill="#FFF1E8" /><rect x="26" y="27" height="1" width="1" fill="#FFF1E8" /><rect x="26" y="29" height="1" width="1" fill="#FFF1E8" /><rect x="26" y="44" height="1" width="1" fill="#FFF1E8" /><rect x="26" y="53" height="1" width="1" fill="#FFF1E8" /><rect x="27" y="5" height="1" width="1" fill="#FFF1E8" /><rect x="27" y="26" height="1" width="1" fill="#FFF1E8" /><rect x="27" y="30" height="1" width="1" fill="#FFF1E8" /><rect x="27" y="41" height="1" width="1" fill="#FFF1E8" /><rect x="27" y="48" height="1" width="1" fill="#FFF1E8" /><rect x="28" y="6" height="1" width="1" fill="#FFF1E8" /><rect x="28" y="7" height="1" width="1" fill="#FFF1E8" /><rect x="28" y="23" height="1" width="1" fill="#FFF1E8" /><rect x="28" y="27" height="1" width="1" fill="#FFF1E8" /><rect x="28" y="36" height="1" width="1" fill="#FFF1E8" /><rect x="28" y="37" height="1" width="1" fill="#FFF1E8" /><rect x="29" y="16" height="1" width="1" fill="#FFF1E8" /><rect x="29" y="32" height="1" width="1" fill="#FFF1E8" /><rect x="29" y="41" height="1" width="1" fill="#FFF1E8" /><rect x="30" y="18" height="1" width="1" fill="#FFF1E8" /><rect x="30" y="32" height="1" width="1" fill="#FFF1E8" /><rect x="30" y="36" height="1" width="1" fill="#FFF1E8" /><rect x="30" y="60" height="1" width="1" fill="#FFF1E8" /><rect x="31" y="6" height="1" width="1" fill="#FFF1E8" /><rect x="31" y="19" height="1" width="1" fill="#FFF1E8" /><rect x="31" y="59" height="1" width="1" fill="#FFF1E8" /><rect x="32" y="4" height="1" width="1" fill="#FFF1E8" /><rect x="32" y="24" height="1" width="1" fill="#FFF1E8" /><rect x="32" y="58" height="1" width="1" fill="#FFF1E8" /><rect x="33" y="45" height="1" width="1" fill="#FFF1E8" /><rect x="33" y="50" height="1" width="1" fill="#FFF1E8" /><rect x="33" y="51" height="1" width="1" fill="#FFF1E8" /><rect x="33" y="59" height="1" width="1" fill="#FFF1E8" /><rect x="34" y="3" height="1" width="1" fill="#FFF1E8" /><rect x="34" y="13" height="1" width="1" fill="#FFF1E8" /><rect x="34" y="19" height="1" width="1" fill="#FFF1E8" /><rect x="35" y="29" height="1" width="1" fill="#FFF1E8" /><rect x="35" y="36" height="1" width="1" fill="#FFF1E8" /><rect x="36" y="22" height="1" width="1" fill="#FFF1E8" /><rect x="36" y="26" height="1" width="1" fill="#FFF1E8" /><rect x="36" y="59" height="1" width="1" fill="#FFF1E8" /><rect x="37" y="16" height="1" width="1" fill="#FFF1E8" /><rect x="37" y="20" height="1" width="1" fill="#FFF1E8" /><rect x="37" y="62" height="1" width="1" fill="#FFF1E8" /><rect x="38" y="50" height="1" width="1" fill="#FFF1E8" /><rect x="39" y="10" height="1" width="1" fill="#FFF1E8" /><rect x="39" y="19" height="1" width="1" fill="#FFF1E8" /><rect x="40" y="13" height="1" width="1" fill="#FFF1E8" /><rect x="40" y="27" height="1" width="1" fill="#FFF1E8" /><rect x="40" y="28" height="1" width="1" fill="#FFF1E8" /><rect x="40" y="30" height="1" width="1" fill="#FFF1E8" /><rect x="40" y="41" height="1" width="1" fill="#FFF1E8" /><rect x="40" y="48" height="1" width="1" fill="#FFF1E8" /><rect x="41" y="5" height="1" width="1" fill="#FFF1E8" /><rect x="41" y="11" height="1" width="1" fill="#FFF1E8" /><rect x="41" y="12" height="1" width="1" fill="#FFF1E8" /><rect x="41" y="26" height="1" width="1" fill="#FFF1E8" /><rect x="41" y="29" height="1" width="1" fill="#FFF1E8" /><rect x="41" y="47" height="1" width="1" fill="#FFF1E8" /><rect x="43" y="19" height="1" width="1" fill="#FFF1E8" /><rect x="43" y="21" height="1" width="1" fill="#FFF1E8" /><rect x="43" y="33" height="1" width="1" fill="#FFF1E8" /><rect x="43" y="59" height="1" width="1" fill="#FFF1E8" /><rect x="44" y="1" height="1" width="1" fill="#FFF1E8" /><rect x="44" y="10" height="1" width="1" fill="#FFF1E8" /><rect x="44" y="13" height="1" width="1" fill="#FFF1E8" /><rect x="44" y="22" height="1" width="1" fill="#FFF1E8" /><rect x="44" y="47" height="1" width="1" fill="#FFF1E8" /><rect x="45" y="36" height="1" width="1" fill="#FFF1E8" /><rect x="46" y="14" height="1" width="1" fill="#FFF1E8" /><rect x="46" y="48" height="1" width="1" fill="#FFF1E8" /><rect x="46" y="63" height="1" width="1" fill="#FFF1E8" /><rect x="47" y="13" height="1" width="1" fill="#FFF1E8" /><rect x="47" y="17" height="1" width="1" fill="#FFF1E8" /><rect x="48" y="32" height="1" width="1" fill="#FFF1E8" /><rect x="48" y="35" height="1" width="1" fill="#FFF1E8" /><rect x="48" y="63" height="1" width="1" fill="#FFF1E8" /><rect x="49" y="15" height="1" width="1" fill="#FFF1E8" /><rect x="49" y="44" height="1" width="1" fill="#FFF1E8" /><rect x="49" y="45" height="1" width="1" fill="#FFF1E8" /><rect x="49" y="50" height="1" width="1" fill="#FFF1E8" /><rect x="50" y="21" height="1" width="1" fill="#FFF1E8" /><rect x="50" y="37" height="1" width="1" fill="#FFF1E8" /><rect x="51" y="7" height="1" width="1" fill="#FFF1E8" /><rect x="51" y="25" height="1" width="1" fill="#FFF1E8" /><rect x="51" y="27" height="1" width="1" fill="#FFF1E8" /><rect x="51" y="51" height="1" width="1" fill="#FFF1E8" /><rect x="52" y="6" height="1" width="1" fill="#FFF1E8" /><rect x="52" y="33" height="1" width="1" fill="#FFF1E8" /><rect x="52" y="38" height="1" width="1" fill="#FFF1E8" /><rect x="53" y="7" height="1" width="1" fill="#FFF1E8" /><rect x="53" y="34" height="1" width="1" fill="#FFF1E8" /><rect x="53" y="50" height="1" width="1" fill="#FFF1E8" /><rect x="54" y="23" height="1" width="1" fill="#FFF1E8" /><rect x="54" y="51" height="1" width="1" fill="#FFF1E8" /><rect x="55" y="38" height="1" width="1" fill="#FFF1E8" /><rect x="55" y="62" height="1" width="1" fill="#FFF1E8" /><rect x="56" y="63" height="1" width="1" fill="#FFF1E8" /><rect x="57" y="55" height="1" width="1" fill="#FFF1E8" /><rect x="58" y="8" height="1" width="1" fill="#FFF1E8" /><rect x="58" y="9" height="1" width="1" fill="#FFF1E8" /><rect x="58" y="20" height="1" width="1" fill="#FFF1E8" /><rect x="58" y="26" height="1" width="1" fill="#FFF1E8" /><rect x="58" y="40" height="1" width="1" fill="#FFF1E8" /><rect x="58" y="47" height="1" width="1" fill="#FFF1E8" /><rect x="58" y="50" height="1" width="1" fill="#FFF1E8" /><rect x="58" y="63" height="1" width="1" fill="#FFF1E8" /><rect x="59" y="20" height="1" width="1" fill="#FFF1E8" /><rect x="60" y="21" height="1" width="1" fill="#FFF1E8" /><rect x="60" y="42" height="1" width="1" fill="#FFF1E8" /><rect x="60" y="50" height="1" width="1" fill="#FFF1E8" /><rect x="61" y="24" height="1" width="1" fill="#FFF1E8" /><rect x="61" y="40" height="1" width="1" fill="#FFF1E8" /><rect x="61" y="51" height="1" width="1" fill="#FFF1E8" /><rect x="62" y="5" height="1" width="1" fill="#FFF1E8" /><rect x="62" y="9" height="1" width="1" fill="#FFF1E8" /><rect x="62" y="18" height="1" width="1" fill="#FFF1E8" /><rect x="62" y="20" height="1" width="1" fill="#FFF1E8" /><rect x="62" y="56" height="1" width="1" fill="#FFF1E8" /><rect x="63" y="2" height="1" width="1" fill="#FFF1E8" /><rect x="63" y="14" height="1" width="1" fill="#FFF1E8" /><rect x="63" y="46" height="1" width="1" fill="#FFF1E8" /></svg>