<svg width="1000" height="1000" viewBox="0 0 64 64" version="1.1" xmlns="http://www.w3.org/2000/svg" shape-rendering="crispEdges"><rect x="0" y="0" height="64" width="64" fill="#000000" /><!-- 
      baseOnly: true, 
      spacing: 2,
      excludeSq: true,
      persistFrames: 4,
      persistedFrames: 5,
    --><rect x="0" y="2" height="1" width="1" fill="#FFF1E8" /><rect x="0" y="4" height="1" width="1" fill="#FFF1E8" /><rect x="0" y="8" height="1" width="1" fill="#FFF1E8" /><rect x="0" y="11" height="1" width="1" fill="#FFF1E8" /><rect x="0" y="22" height="1" width="1" fill="#FFF1E8" /><rect x="0" y="38" height="1" width="1" fill="#FFF1E8" /><rect x="1" y="0" height="1" width="1" fill="#FFF1E8" /><rect x="1" y="7" height="1" width="1" fill="#FFF1E8" /><rect x="1" y="29" height="1" width="1" fill="#FFF1E8" /><rect x="1" y="31" height="1" width="1" fill="#FFF1E8" /><rect x="1" y="53" height="1" width="1" fill="#FFF1E8" /><rect x="1" y="56" height="1" width="1" fill="#FFF1E8" /><rect x="2" y="6" height="1" width="1" fill="#FFF1E8" /><rect x="3" y="18" height="1" width="1" fill="#FFF1E8" /><rect x="3" y="23" height="1" width="1" fill="#FFF1E8" /><rect x="3" y="40" height="1" width="1" fill="#FFF1E8" /><rect x="3" y="42" height="1" width="1" fill="#FFF1E8" /><rect x="4" y="15" height="1" width="1" fill="#FFF1E8" /><rect x="4" y="26" height="1" width="1" fill="#FFF1E8" /><rect x="4" y="39" height="1" width="1" fill="#FFF1E8" /><rect x="4" y="45" height="1" width="1" fill="#FFF1E8" /><rect x="4" y="60" height="1" width="1" fill="#FFF1E8" /><rect x="5" y="0" height="1" width="1" fill="#FFF1E8" /><rect x="5" y="27" height="1" width="1" fill="#FFF1E8" /><rect x="5" y="28" height="1" width="1" fill="#FFF1E8" /><rect x="5" y="33" height="1" width="1" fill="#FFF1E8" /><rect x="5" y="49" height="1" width="1" fill="#FFF1E8" /><rect x="5" y="53" height="1" width="1" fill="#FFF1E8" /><rect x="6" y="19" height="1" width="1" fill="#FFF1E8" /><rect x="6" y="44" height="1" width="1" fill="#FFF1E8" /><rect x="6" y="57" height="1" width="1" fill="#FFF1E8" /><rect x="7" y="21" height="1" width="1" fill="#FFF1E8" /><rect x="7" y="28" height="1" width="1" fill="#FFF1E8" /><rect x="7" y="43" height="1" width="1" fill="#FFF1E8" /><rect x="7" y="58" height="1" width="1" fill="#FFF1E8" /><rect x="7" y="59" height="1" width="1" fill="#FFF1E8" /><rect x="8" y="9" height="1" width="1" fill="#FFF1E8" /><rect x="8" y="22" height="1" width="1" fill="#FFF1E8" /><rect x="8" y="38" height="1" width="1" fill="#FFF1E8" /><rect x="8" y="52" height="1" width="1" fill="#FFF1E8" /><rect x="9" y="14" height="1" width="1" fill="#FFF1E8" /><rect x="9" y="61" height="1" width="1" fill="#FFF1E8" /><rect x="10" y="31" height="1" width="1" fill="#FFF1E8" /><rect x="10" y="33" height="1" width="1" fill="#FFF1E8" /><rect x="10" y="49" height="1" width="1" fill="#FFF1E8" /><rect x="10" y="57" height="1" width="1" fill="#FFF1E8" /><rect x="11" y="7" height="1" width="1" fill="#FFF1E8" /><rect x="11" y="52" height="1" width="1" fill="#FFF1E8" /><rect x="12" y="5" height="1" width="1" fill="#FFF1E8" /><rect x="12" y="20" height="1" width="1" fill="#FFF1E8" /><rect x="12" y="35" height="1" width="1" fill="#FFF1E8" /><rect x="12" y="38" height="1" width="1" fill="#FFF1E8" /><rect x="12" y="39" height="1" width="1" fill="#FFF1E8" /><rect x="13" y="5" height="1" width="1" fill="#FFF1E8" /><rect x="13" y="7" height="1" width="1" fill="#FFF1E8" /><rect x="13" y="8" height="1" width="1" fill="#FFF1E8" /><rect x="13" y="39" height="1" width="1" fill="#FFF1E8" /><rect x="13" y="44" height="1" width="1" fill="#FFF1E8" /><rect x="14" y="16" height="1" width="1" fill="#FFF1E8" /><rect x="14" y="34" height="1" width="1" fill="#FFF1E8" /><rect x="14" y="58" height="1" width="1" fill="#FFF1E8" /><rect x="15" y="4" height="1" width="1" fill="#FFF1E8" /><rect x="15" y="15" height="1" width="1" fill="#FFF1E8" /><rect x="15" y="17" height="1" width="1" fill="#FFF1E8" /><rect x="15" y="25" height="1" width="1" fill="#FFF1E8" /><rect x="15" y="42" height="1" width="1" fill="#FFF1E8" /><rect x="15" y="43" height="1" width="1" fill="#FFF1E8" /><rect x="15" y="54" height="1" width="1" fill="#FFF1E8" /><rect x="16" y="5" height="1" width="1" fill="#FFF1E8" /><rect x="16" y="10" height="1" width="1" fill="#FFF1E8" /><rect x="16" y="36" height="1" width="1" fill="#FFF1E8" /><rect x="16" y="54" height="1" width="1" fill="#FFF1E8" /><rect x="17" y="3" height="1" width="1" fill="#FFF1E8" /><rect x="17" y="24" height="1" width="1" fill="#FFF1E8" /><rect x="17" y="33" height="1" width="1" fill="#FFF1E8" /><rect x="17" y="59" height="1" width="1" fill="#FFF1E8" /><rect x="17" y="61" height="1" width="1" fill="#FFF1E8" /><rect x="17" y="63" height="1" width="1" fill="#FFF1E8" /><rect x="18" y="3" height="1" width="1" fill="#FFF1E8" /><rect x="18" y="32" height="1" width="1" fill="#FFF1E8" /><rect x="18" y="51" height="1" width="1" fill="#FFF1E8" /><rect x="19" y="2" height="1" width="1" fill="#FFF1E8" /><rect x="19" y="40" height="1" width="1" fill="#FFF1E8" /><rect x="19" y="47" height="1" width="1" fill="#FFF1E8" /><rect x="19" y="60" height="1" width="1" fill="#FFF1E8" /><rect x="20" y="1" height="1" width="1" fill="#FFF1E8" /><rect x="20" y="15" height="1" width="1" fill="#FFF1E8" /><rect x="21" y="0" height="1" width="1" fill="#FFF1E8" /><rect x="21" y="5" height="1" width="1" fill="#FFF1E8" /><rect x="21" y="14" height="1" width="1" fill="#FFF1E8" /><rect x="21" y="20" height="1" width="1" fill="#FFF1E8" /><rect x="21" y="24" height="1" width="1" fill="#FFF1E8" /><rect x="21" y="31" height="1" width="1" fill="#FFF1E8" /><rect x="21" y="33" height="1" width="1" fill="#FFF1E8" /><rect x="21" y="34" height="1" width="1" fill="#FFF1E8" /><rect x="21" y="53" height="1" width="1" fill="#FFF1E8" /><rect x="21" y="55" height="1" width="1" fill="#FFF1E8" /><rect x="22" y="2" height="1" width="1" fill="#FFF1E8" /><rect x="23" y="0" height="1" width="1" fill="#FFF1E8" /><rect x="23" y="8" height="1" width="1" fill="#FFF1E8" /><rect x="23" y="14" height="1" width="1" fill="#FFF1E8" /><rect x="23" y="27" height="1" width="1" fill="#FFF1E8" /><rect x="23" y="37" height="1" width="1" fill="#FFF1E8" /><rect x="23" y="40" height="1" width="1" fill="#FFF1E8" /><rect x="23" y="45" height="1" width="1" fill="#FFF1E8" /><rect x="24" y="9" height="1" width="1" fill="#FFF1E8" /><rect x="24" y="40" height="1" width="1" fill="#FFF1E8" /><rect x="25" y="2" height="1" width="1" fill="#FFF1E8" /><rect x="26" y="2" height="1" width="1" fill="#FFF1E8" /><rect x="26" y="28" height="1" width="1" fill="#FFF1E8" /><rect x="27" y="24" height="1" width="1" fill="#FFF1E8" /><rect x="27" y="56" height="1" width="1" fill="#FFF1E8" /><rect x="27" y="58" height="1" width="1" fill="#FFF1E8" /><rect x="28" y="33" height="1" width="1" fill="#FFF1E8" /><rect x="28" y="39" height="1" width="1" fill="#FFF1E8" /><rect x="29" y="2" height="1" width="1" fill="#FFF1E8" /><rect x="29" y="4" height="1" width="1" fill="#FFF1E8" /><rect x="29" y="6" height="1" width="1" fill="#FFF1E8" /><rect x="29" y="35" height="1" width="1" fill="#FFF1E8" /><rect x="30" y="8" height="1" width="1" fill="#FFF1E8" /><rect x="30" y="13" height="1" width="1" fill="#FFF1E8" /><rect x="30" y="16" height="1" width="1" fill="#FFF1E8" /><rect x="30" y="58" height="1" width="1" fill="#FFF1E8" /><rect x="31" y="14" height="1" width="1" fill="#FFF1E8" /><rect x="31" y="26" height="1" width="1" fill="#FFF1E8" /><rect x="31" y="37" height="1" width="1" fill="#FFF1E8" /><rect x="31" y="39" height="1" width="1" fill="#FFF1E8" /><rect x="31" y="48" height="1" width="1" fill="#FFF1E8" /><rect x="32" y="13" height="1" width="1" fill="#FFF1E8" /><rect x="32" y="15" height="1" width="1" fill="#FFF1E8" /><rect x="32" y="16" height="1" width="1" fill="#FFF1E8" /><rect x="32" y="17" height="1" width="1" fill="#FFF1E8" /><rect x="32" y="39" height="1" width="1" fill="#FFF1E8" /><rect x="32" y="41" height="1" width="1" fill="#FFF1E8" /><rect x="32" y="44" height="1" width="1" fill="#FFF1E8" /><rect x="33" y="4" height="1" width="1" fill="#FFF1E8" /><rect x="33" y="28" height="1" width="1" fill="#FFF1E8" /><rect x="34" y="4" height="1" width="1" fill="#FFF1E8" /><rect x="34" y="13" height="1" width="1" fill="#FFF1E8" /><rect x="34" y="54" height="1" width="1" fill="#FFF1E8" /><rect x="35" y="61" height="1" width="1" fill="#FFF1E8" /><rect x="36" y="19" height="1" width="1" fill="#FFF1E8" /><rect x="36" y="25" height="1" width="1" fill="#FFF1E8" /><rect x="36" y="55" height="1" width="1" fill="#FFF1E8" /><rect x="36" y="59" height="1" width="1" fill="#FFF1E8" /><rect x="37" y="20" height="1" width="1" fill="#FFF1E8" /><rect x="37" y="35" height="1" width="1" fill="#FFF1E8" /><rect x="37" y="36" height="1" width="1" fill="#FFF1E8" /><rect x="38" y="31" height="1" width="1" fill="#FFF1E8" /><rect x="38" y="46" height="1" width="1" fill="#FFF1E8" /><rect x="38" y="57" height="1" width="1" fill="#FFF1E8" /><rect x="39" y="17" height="1" width="1" fill="#FFF1E8" /><rect x="39" y="37" height="1" width="1" fill="#FFF1E8" /><rect x="39" y="39" height="1" width="1" fill="#FFF1E8" /><rect x="39" y="48" height="1" width="1" fill="#FFF1E8" /><rect x="39" y="49" height="1" width="1" fill="#FFF1E8" /><rect x="39" y="52" height="1" width="1" fill="#FFF1E8" /><rect x="40" y="3" height="1" width="1" fill="#FFF1E8" /><rect x="40" y="58" height="1" width="1" fill="#FFF1E8" /><rect x="40" y="63" height="1" width="1" fill="#FFF1E8" /><rect x="41" y="33" height="1" width="1" fill="#FFF1E8" /><rect x="41" y="36" height="1" width="1" fill="#FFF1E8" /><rect x="42" y="15" height="1" width="1" fill="#FFF1E8" /><rect x="42" y="57" height="1" width="1" fill="#FFF1E8" /><rect x="43" y="26" height="1" width="1" fill="#FFF1E8" /><rect x="43" y="27" height="1" width="1" fill="#FFF1E8" /><rect x="43" y="56" height="1" width="1" fill="#FFF1E8" /><rect x="44" y="15" height="1" width="1" fill="#FFF1E8" /><rect x="44" y="17" height="1" width="1" fill="#FFF1E8" /><rect x="44" y="20" height="1" width="1" fill="#FFF1E8" /><rect x="44" y="23" height="1" width="1" fill="#FFF1E8" /><rect x="44" y="29" height="1" width="1" fill="#FFF1E8" /><rect x="44" y="31" height="1" width="1" fill="#FFF1E8" /><rect x="45" y="51" height="1" width="1" fill="#FFF1E8" /><rect x="45" y="61" height="1" width="1" fill="#FFF1E8" /><rect x="46" y="49" height="1" width="1" fill="#FFF1E8" /><rect x="47" y="0" height="1" width="1" fill="#FFF1E8" /><rect x="47" y="18" height="1" width="1" fill="#FFF1E8" /><rect x="47" y="31" height="1" width="1" fill="#FFF1E8" /><rect x="47" y="36" height="1" width="1" fill="#FFF1E8" /><rect x="47" y="37" height="1" width="1" fill="#FFF1E8" /><rect x="48" y="2" height="1" width="1" fill="#FFF1E8" /><rect x="48" y="22" height="1" width="1" fill="#FFF1E8" /><rect x="49" y="59" height="1" width="1" fill="#FFF1E8" /><rect x="50" y="8" height="1" width="1" fill="#FFF1E8" /><rect x="51" y="8" height="1" width="1" fill="#FFF1E8" /><rect x="52" y="35" height="1" width="1" fill="#FFF1E8" /><rect x="52" y="57" height="1" width="1" fill="#FFF1E8" /><rect x="52" y="62" height="1" width="1" fill="#FFF1E8" /><rect x="53" y="46" height="1" width="1" fill="#FFF1E8" /><rect x="53" y="56" height="1" width="1" fill="#FFF1E8" /><rect x="53" y="57" height="1" width="1" fill="#FFF1E8" /><rect x="53" y="63" height="1" width="1" fill="#FFF1E8" /><rect x="54" y="45" height="1" width="1" fill="#FFF1E8" /><rect x="54" y="52" height="1" width="1" fill="#FFF1E8" /><rect x="54" y="56" height="1" width="1" fill="#FFF1E8" /><rect x="54" y="61" height="1" width="1" fill="#FFF1E8" /><rect x="55" y="10" height="1" width="1" fill="#FFF1E8" /><rect x="55" y="32" height="1" width="1" fill="#FFF1E8" /><rect x="55" y="42" height="1" width="1" fill="#FFF1E8" /><rect x="55" y="47" height="1" width="1" fill="#FFF1E8" /><rect x="55" y="55" height="1" width="1" fill="#FFF1E8" /><rect x="57" y="37" height="1" width="1" fill="#FFF1E8" /><rect x="58" y="4" height="1" width="1" fill="#FFF1E8" /><rect x="58" y="26" height="1" width="1" fill="#FFF1E8" /><rect x="59" y="20" height="1" width="1" fill="#FFF1E8" /><rect x="59" y="59" height="1" width="1" fill="#FFF1E8" /><rect x="59" y="62" height="1" width="1" fill="#FFF1E8" /><rect x="60" y="25" height="1" width="1" fill="#FFF1E8" /><rect x="60" y="43" height="1" width="1" fill="#FFF1E8" /><rect x="60" y="55" height="1" width="1" fill="#FFF1E8" /><rect x="61" y="49" height="1" width="1" fill="#FFF1E8" /><rect x="62" y="3" height="1" width="1" fill="#FFF1E8" /><rect x="62" y="24" height="1" width="1" fill="#FFF1E8" /><rect x="62" y="25" height="1" width="1" fill="#FFF1E8" /><rect x="62" y="33" height="1" width="1" fill="#FFF1E8" /><rect x="63" y="23" height="1" width="1" fill="#FFF1E8" /></svg>